<svg width="118" height="101" viewBox="0 0 118 101" fill="none" xmlns="http://www.w3.org/2000/svg">
<path d="M37.5867 100.667C81.5467 100.667 105.587 64.2492 105.587 32.6705C105.587 31.6359 105.56 30.6052 105.52 29.5812C110.187 26.2079 114.24 21.9985 117.44 17.2078C113.16 19.1091 108.547 20.3919 103.72 20.9692C108.653 18.0119 112.44 13.3292 114.227 7.74919C109.6 10.4879 104.493 12.4785 99.0533 13.5505C94.68 8.90516 88.4799 5.99984 81.5999 5.99984C68.3999 5.99984 57.7066 16.7025 57.7066 29.8958C57.7066 31.7718 57.9067 33.5958 58.32 35.3452C38.4533 34.3465 20.8533 24.8372 9.0666 10.3772C7.01327 13.9065 5.82663 18.0119 5.82663 22.3879C5.82663 30.6799 10.0399 37.9986 16.4666 42.2812C12.5466 42.1599 8.85324 41.0825 5.63991 39.2905C5.62658 39.3905 5.62663 39.4905 5.62663 39.5958C5.62663 51.1705 13.8666 60.8332 24.7999 63.0252C22.7999 63.5706 20.6799 63.8652 18.5066 63.8652C16.9599 63.8652 15.4666 63.7131 14.0132 63.4345C17.0532 72.9291 25.8799 79.8385 36.3333 80.0332C28.1599 86.4425 17.8533 90.2625 6.65332 90.2625C4.73332 90.2625 2.82663 90.1532 0.959961 89.9319C11.5333 96.7092 24.0933 100.667 37.5867 100.667Z" fill="black"/>
<path d="M37.5867 94.6665C81.5467 94.6665 105.587 58.2492 105.587 26.6705C105.587 25.6359 105.56 24.6052 105.52 23.5812C110.187 20.2079 114.24 15.9985 117.44 11.2078C113.16 13.1091 108.547 14.3919 103.72 14.9692C108.653 12.0119 112.44 7.32919 114.227 1.74919C109.6 4.48786 104.493 6.47849 99.0533 7.55049C94.68 2.90516 88.4799 -0.000157118 81.5999 -0.000157118C68.3999 -0.000157118 57.7066 10.7025 57.7066 23.8958C57.7066 25.7718 57.9067 27.5958 58.32 29.3452C38.4533 28.3465 20.8533 18.8372 9.0666 4.37719C7.01327 7.90652 5.82663 12.0119 5.82663 16.3879C5.82663 24.6799 10.0399 31.9986 16.4666 36.2812C12.5466 36.1599 8.85324 35.0825 5.63991 33.2905C5.62658 33.3905 5.62663 33.4905 5.62663 33.5958C5.62663 45.1705 13.8666 54.8332 24.7999 57.0252C22.7999 57.5706 20.6799 57.8652 18.5066 57.8652C16.9599 57.8652 15.4666 57.7131 14.0132 57.4345C17.0532 66.9291 25.8799 73.8385 36.3333 74.0332C28.1599 80.4425 17.8533 84.2625 6.65332 84.2625C4.73332 84.2625 2.82663 84.1532 0.959961 83.9319C11.5333 90.7092 24.0933 94.6665 37.5867 94.6665Z" fill="#0052FF"/>
</svg>
