<svg width="854" height="370" viewBox="0 0 854 370" fill="none" xmlns="http://www.w3.org/2000/svg">
<rect x="8" y="28" width="846" height="342" rx="20" fill="#002676"/>
<rect x="1" y="1" width="820" height="332" rx="19" fill="#0052FF" stroke="black" stroke-width="2"/>
<mask id="path-3-outside-1_15_7" maskUnits="userSpaceOnUse" x="46" y="61" width="696" height="206" fill="black">
<rect fill="white" x="46" y="61" width="696" height="206"/>
<path d="M72.6052 149.85C72.6052 135.16 79.8037 120.974 94.2007 107.293L91.1774 71H112.773L110.829 93.4669C114.573 90.7305 120.331 86.77 128.106 81.5854L154.236 116.582C143.007 120.47 133.937 125.439 127.026 131.488C120.259 137.537 116.876 143.873 116.876 150.498C116.876 155.107 118.532 162.524 121.843 172.749C125.298 182.83 127.026 190.031 127.026 194.352C127.026 206.305 121.339 216.387 109.965 224.596L112.773 257H91.1774L93.121 233.669C85.6345 236.837 75.7725 239.79 63.5351 242.526L59 228.484C79.0119 222.868 89.0178 212.858 89.0178 198.456C89.0178 194.856 87.6501 190.463 84.9147 185.279C82.1792 180.094 79.4438 174.477 76.7084 168.429C73.9729 162.236 72.6052 156.043 72.6052 149.85Z"/>
<path d="M186.677 96.7073C207.841 90.2265 227.708 86.9861 246.281 86.9861C264.997 86.9861 279.898 90.4425 290.983 97.3554C293.431 104.7 294.655 111.757 294.655 118.526C294.655 133.648 288.176 146.034 275.219 155.683C283.425 162.02 289.832 169.221 294.439 177.286C299.19 185.351 301.565 192.84 301.565 199.753C301.565 211.13 296.31 220.419 285.801 227.62C275.291 234.821 258.878 238.422 236.563 238.422C223.893 238.422 211.368 237.557 198.986 235.829L186.677 96.7073ZM222.094 219.843C230.012 222.003 237.57 223.084 244.769 223.084C251.967 223.084 256.718 222.652 259.022 221.787C264.061 211.706 266.58 201.553 266.58 191.328C266.58 180.958 264.205 172.101 259.454 164.756C250.816 168.645 239.946 172.101 226.845 175.125L222.094 219.843ZM259.67 126.087C259.67 121.479 258.662 116.798 256.647 112.045C254.631 107.149 251.824 103.476 248.224 101.028C244.913 101.028 240.306 101.892 234.403 103.62L228.14 162.812C237.786 158.923 245.417 153.595 251.032 146.826C256.79 139.913 259.67 133 259.67 126.087Z"/>
<path d="M433.546 188.087C433.546 196.872 432.826 204.217 431.387 210.122C429.947 215.883 427.355 220.995 423.612 225.46C416.414 233.813 402.449 237.99 381.717 237.99C361.129 237.99 345.148 233.309 333.775 223.948C331.327 211.85 330.103 199.897 330.103 188.087C330.103 164.18 334.567 142.793 343.493 123.927C352.563 105.06 363.073 91.6667 375.022 83.7456C391.867 90.6585 405.832 103.62 416.918 122.631C428.003 141.497 433.546 163.316 433.546 188.087ZM407.415 178.366C407.415 156.187 403.744 137.177 396.402 121.334C382.437 134.152 371.495 148.986 363.577 165.836C355.802 182.686 351.915 199.249 351.915 215.523C356.81 216.531 362.641 217.035 369.407 217.035C382.653 217.035 394.026 215.379 403.528 212.066C406.12 200.833 407.415 189.599 407.415 178.366Z"/>
<path d="M465.479 96.7073C486.642 90.2265 506.51 86.9861 525.083 86.9861C543.799 86.9861 558.7 90.4425 569.785 97.3554C572.233 104.7 573.457 111.757 573.457 118.526C573.457 133.648 566.978 146.034 554.021 155.683C562.227 162.02 568.634 169.221 573.241 177.286C577.992 185.351 580.367 192.84 580.367 199.753C580.367 211.13 575.112 220.419 564.602 227.62C554.093 234.821 537.68 238.422 515.365 238.422C502.695 238.422 490.17 237.557 477.788 235.829L465.479 96.7073ZM500.896 219.843C508.814 222.003 516.372 223.084 523.571 223.084C530.769 223.084 535.52 222.652 537.824 221.787C542.863 211.706 545.382 201.553 545.382 191.328C545.382 180.958 543.007 172.101 538.256 164.756C529.618 168.645 518.748 172.101 505.647 175.125L500.896 219.843ZM538.472 126.087C538.472 121.479 537.464 116.798 535.448 112.045C533.433 107.149 530.625 103.476 527.026 101.028C523.715 101.028 519.108 101.892 513.205 103.62L506.942 162.812C516.588 158.923 524.219 153.595 529.834 146.826C535.592 139.913 538.472 133 538.472 126.087Z"/>
<path d="M617.112 96.7073C638.275 90.2265 658.143 86.9861 676.715 86.9861C695.432 86.9861 710.332 90.4425 721.418 97.3554C723.866 104.7 725.089 111.757 725.089 118.526C725.089 133.648 718.611 146.034 705.653 155.683C713.86 162.02 720.266 169.221 724.873 177.286C729.625 185.351 732 192.84 732 199.753C732 211.13 726.745 220.419 716.235 227.62C705.725 234.821 689.313 238.422 666.997 238.422C654.328 238.422 641.803 237.557 629.421 235.829L617.112 96.7073ZM652.528 219.843C660.447 222.003 668.005 223.084 675.204 223.084C682.402 223.084 687.153 222.652 689.457 221.787C694.496 211.706 697.015 201.553 697.015 191.328C697.015 180.958 694.64 172.101 689.889 164.756C681.25 168.645 670.381 172.101 657.279 175.125L652.528 219.843ZM690.105 126.087C690.105 121.479 689.097 116.798 687.081 112.045C685.066 107.149 682.258 103.476 678.659 101.028C675.348 101.028 670.741 101.892 664.838 103.62L658.575 162.812C668.221 158.923 675.852 153.595 681.466 146.826C687.225 139.913 690.105 133 690.105 126.087Z"/>
</mask>
<path d="M72.6052 149.85C72.6052 135.16 79.8037 120.974 94.2007 107.293L91.1774 71H112.773L110.829 93.4669C114.573 90.7305 120.331 86.77 128.106 81.5854L154.236 116.582C143.007 120.47 133.937 125.439 127.026 131.488C120.259 137.537 116.876 143.873 116.876 150.498C116.876 155.107 118.532 162.524 121.843 172.749C125.298 182.83 127.026 190.031 127.026 194.352C127.026 206.305 121.339 216.387 109.965 224.596L112.773 257H91.1774L93.121 233.669C85.6345 236.837 75.7725 239.79 63.5351 242.526L59 228.484C79.0119 222.868 89.0178 212.858 89.0178 198.456C89.0178 194.856 87.6501 190.463 84.9147 185.279C82.1792 180.094 79.4438 174.477 76.7084 168.429C73.9729 162.236 72.6052 156.043 72.6052 149.85Z" fill="white"/>
<path d="M186.677 96.7073C207.841 90.2265 227.708 86.9861 246.281 86.9861C264.997 86.9861 279.898 90.4425 290.983 97.3554C293.431 104.7 294.655 111.757 294.655 118.526C294.655 133.648 288.176 146.034 275.219 155.683C283.425 162.02 289.832 169.221 294.439 177.286C299.19 185.351 301.565 192.84 301.565 199.753C301.565 211.13 296.31 220.419 285.801 227.62C275.291 234.821 258.878 238.422 236.563 238.422C223.893 238.422 211.368 237.557 198.986 235.829L186.677 96.7073ZM222.094 219.843C230.012 222.003 237.57 223.084 244.769 223.084C251.967 223.084 256.718 222.652 259.022 221.787C264.061 211.706 266.58 201.553 266.58 191.328C266.58 180.958 264.205 172.101 259.454 164.756C250.816 168.645 239.946 172.101 226.845 175.125L222.094 219.843ZM259.67 126.087C259.67 121.479 258.662 116.798 256.647 112.045C254.631 107.149 251.824 103.476 248.224 101.028C244.913 101.028 240.306 101.892 234.403 103.62L228.14 162.812C237.786 158.923 245.417 153.595 251.032 146.826C256.79 139.913 259.67 133 259.67 126.087Z" fill="white"/>
<path d="M433.546 188.087C433.546 196.872 432.826 204.217 431.387 210.122C429.947 215.883 427.355 220.995 423.612 225.46C416.414 233.813 402.449 237.99 381.717 237.99C361.129 237.99 345.148 233.309 333.775 223.948C331.327 211.85 330.103 199.897 330.103 188.087C330.103 164.18 334.567 142.793 343.493 123.927C352.563 105.06 363.073 91.6667 375.022 83.7456C391.867 90.6585 405.832 103.62 416.918 122.631C428.003 141.497 433.546 163.316 433.546 188.087ZM407.415 178.366C407.415 156.187 403.744 137.177 396.402 121.334C382.437 134.152 371.495 148.986 363.577 165.836C355.802 182.686 351.915 199.249 351.915 215.523C356.81 216.531 362.641 217.035 369.407 217.035C382.653 217.035 394.026 215.379 403.528 212.066C406.12 200.833 407.415 189.599 407.415 178.366Z" fill="white"/>
<path d="M465.479 96.7073C486.642 90.2265 506.51 86.9861 525.083 86.9861C543.799 86.9861 558.7 90.4425 569.785 97.3554C572.233 104.7 573.457 111.757 573.457 118.526C573.457 133.648 566.978 146.034 554.021 155.683C562.227 162.02 568.634 169.221 573.241 177.286C577.992 185.351 580.367 192.84 580.367 199.753C580.367 211.13 575.112 220.419 564.602 227.62C554.093 234.821 537.68 238.422 515.365 238.422C502.695 238.422 490.17 237.557 477.788 235.829L465.479 96.7073ZM500.896 219.843C508.814 222.003 516.372 223.084 523.571 223.084C530.769 223.084 535.52 222.652 537.824 221.787C542.863 211.706 545.382 201.553 545.382 191.328C545.382 180.958 543.007 172.101 538.256 164.756C529.618 168.645 518.748 172.101 505.647 175.125L500.896 219.843ZM538.472 126.087C538.472 121.479 537.464 116.798 535.448 112.045C533.433 107.149 530.625 103.476 527.026 101.028C523.715 101.028 519.108 101.892 513.205 103.62L506.942 162.812C516.588 158.923 524.219 153.595 529.834 146.826C535.592 139.913 538.472 133 538.472 126.087Z" fill="white"/>
<path d="M617.112 96.7073C638.275 90.2265 658.143 86.9861 676.715 86.9861C695.432 86.9861 710.332 90.4425 721.418 97.3554C723.866 104.7 725.089 111.757 725.089 118.526C725.089 133.648 718.611 146.034 705.653 155.683C713.86 162.02 720.266 169.221 724.873 177.286C729.625 185.351 732 192.84 732 199.753C732 211.13 726.745 220.419 716.235 227.62C705.725 234.821 689.313 238.422 666.997 238.422C654.328 238.422 641.803 237.557 629.421 235.829L617.112 96.7073ZM652.528 219.843C660.447 222.003 668.005 223.084 675.204 223.084C682.402 223.084 687.153 222.652 689.457 221.787C694.496 211.706 697.015 201.553 697.015 191.328C697.015 180.958 694.64 172.101 689.889 164.756C681.25 168.645 670.381 172.101 657.279 175.125L652.528 219.843ZM690.105 126.087C690.105 121.479 689.097 116.798 687.081 112.045C685.066 107.149 682.258 103.476 678.659 101.028C675.348 101.028 670.741 101.892 664.838 103.62L658.575 162.812C668.221 158.923 675.852 153.595 681.466 146.826C687.225 139.913 690.105 133 690.105 126.087Z" fill="white"/>
<path d="M72.6052 149.85C72.6052 135.16 79.8037 120.974 94.2007 107.293L91.1774 71H112.773L110.829 93.4669C114.573 90.7305 120.331 86.77 128.106 81.5854L154.236 116.582C143.007 120.47 133.937 125.439 127.026 131.488C120.259 137.537 116.876 143.873 116.876 150.498C116.876 155.107 118.532 162.524 121.843 172.749C125.298 182.83 127.026 190.031 127.026 194.352C127.026 206.305 121.339 216.387 109.965 224.596L112.773 257H91.1774L93.121 233.669C85.6345 236.837 75.7725 239.79 63.5351 242.526L59 228.484C79.0119 222.868 89.0178 212.858 89.0178 198.456C89.0178 194.856 87.6501 190.463 84.9147 185.279C82.1792 180.094 79.4438 174.477 76.7084 168.429C73.9729 162.236 72.6052 156.043 72.6052 149.85Z" stroke="#1A4298" stroke-width="20" mask="url(#path-3-outside-1_15_7)"/>
<path d="M186.677 96.7073C207.841 90.2265 227.708 86.9861 246.281 86.9861C264.997 86.9861 279.898 90.4425 290.983 97.3554C293.431 104.7 294.655 111.757 294.655 118.526C294.655 133.648 288.176 146.034 275.219 155.683C283.425 162.02 289.832 169.221 294.439 177.286C299.19 185.351 301.565 192.84 301.565 199.753C301.565 211.13 296.31 220.419 285.801 227.62C275.291 234.821 258.878 238.422 236.563 238.422C223.893 238.422 211.368 237.557 198.986 235.829L186.677 96.7073ZM222.094 219.843C230.012 222.003 237.57 223.084 244.769 223.084C251.967 223.084 256.718 222.652 259.022 221.787C264.061 211.706 266.58 201.553 266.58 191.328C266.58 180.958 264.205 172.101 259.454 164.756C250.816 168.645 239.946 172.101 226.845 175.125L222.094 219.843ZM259.67 126.087C259.67 121.479 258.662 116.798 256.647 112.045C254.631 107.149 251.824 103.476 248.224 101.028C244.913 101.028 240.306 101.892 234.403 103.62L228.14 162.812C237.786 158.923 245.417 153.595 251.032 146.826C256.79 139.913 259.67 133 259.67 126.087Z" stroke="#1A4298" stroke-width="20" mask="url(#path-3-outside-1_15_7)"/>
<path d="M433.546 188.087C433.546 196.872 432.826 204.217 431.387 210.122C429.947 215.883 427.355 220.995 423.612 225.46C416.414 233.813 402.449 237.99 381.717 237.99C361.129 237.99 345.148 233.309 333.775 223.948C331.327 211.85 330.103 199.897 330.103 188.087C330.103 164.18 334.567 142.793 343.493 123.927C352.563 105.06 363.073 91.6667 375.022 83.7456C391.867 90.6585 405.832 103.62 416.918 122.631C428.003 141.497 433.546 163.316 433.546 188.087ZM407.415 178.366C407.415 156.187 403.744 137.177 396.402 121.334C382.437 134.152 371.495 148.986 363.577 165.836C355.802 182.686 351.915 199.249 351.915 215.523C356.81 216.531 362.641 217.035 369.407 217.035C382.653 217.035 394.026 215.379 403.528 212.066C406.12 200.833 407.415 189.599 407.415 178.366Z" stroke="#1A4298" stroke-width="20" mask="url(#path-3-outside-1_15_7)"/>
<path d="M465.479 96.7073C486.642 90.2265 506.51 86.9861 525.083 86.9861C543.799 86.9861 558.7 90.4425 569.785 97.3554C572.233 104.7 573.457 111.757 573.457 118.526C573.457 133.648 566.978 146.034 554.021 155.683C562.227 162.02 568.634 169.221 573.241 177.286C577.992 185.351 580.367 192.84 580.367 199.753C580.367 211.13 575.112 220.419 564.602 227.62C554.093 234.821 537.68 238.422 515.365 238.422C502.695 238.422 490.17 237.557 477.788 235.829L465.479 96.7073ZM500.896 219.843C508.814 222.003 516.372 223.084 523.571 223.084C530.769 223.084 535.52 222.652 537.824 221.787C542.863 211.706 545.382 201.553 545.382 191.328C545.382 180.958 543.007 172.101 538.256 164.756C529.618 168.645 518.748 172.101 505.647 175.125L500.896 219.843ZM538.472 126.087C538.472 121.479 537.464 116.798 535.448 112.045C533.433 107.149 530.625 103.476 527.026 101.028C523.715 101.028 519.108 101.892 513.205 103.62L506.942 162.812C516.588 158.923 524.219 153.595 529.834 146.826C535.592 139.913 538.472 133 538.472 126.087Z" stroke="#1A4298" stroke-width="20" mask="url(#path-3-outside-1_15_7)"/>
<path d="M617.112 96.7073C638.275 90.2265 658.143 86.9861 676.715 86.9861C695.432 86.9861 710.332 90.4425 721.418 97.3554C723.866 104.7 725.089 111.757 725.089 118.526C725.089 133.648 718.611 146.034 705.653 155.683C713.86 162.02 720.266 169.221 724.873 177.286C729.625 185.351 732 192.84 732 199.753C732 211.13 726.745 220.419 716.235 227.62C705.725 234.821 689.313 238.422 666.997 238.422C654.328 238.422 641.803 237.557 629.421 235.829L617.112 96.7073ZM652.528 219.843C660.447 222.003 668.005 223.084 675.204 223.084C682.402 223.084 687.153 222.652 689.457 221.787C694.496 211.706 697.015 201.553 697.015 191.328C697.015 180.958 694.64 172.101 689.889 164.756C681.25 168.645 670.381 172.101 657.279 175.125L652.528 219.843ZM690.105 126.087C690.105 121.479 689.097 116.798 687.081 112.045C685.066 107.149 682.258 103.476 678.659 101.028C675.348 101.028 670.741 101.892 664.838 103.62L658.575 162.812C668.221 158.923 675.852 153.595 681.466 146.826C687.225 139.913 690.105 133 690.105 126.087Z" stroke="#1A4298" stroke-width="20" mask="url(#path-3-outside-1_15_7)"/>
</svg>
