<svg width="96" height="86" viewBox="0 0 96 86" fill="none" xmlns="http://www.w3.org/2000/svg">
<path d="M95.811 7.71084C95.467 6.69751 95.0564 6.43084 94.415 6.17751C93.0124 5.65751 90.6364 6.44418 90.6364 6.44418C90.6364 6.44418 6.52302 36.6842 1.71769 40.0308C0.683021 40.7508 0.336368 41.1775 0.164368 41.6708C-0.666299 44.0442 1.92169 45.0975 1.92169 45.0975L23.6017 52.1642C23.6017 52.1642 24.4097 52.2842 24.6977 52.0975C29.6297 48.9775 74.319 20.7642 76.8964 19.8175C77.303 19.6975 77.6044 19.8308 77.5244 20.1108C76.4924 23.7375 37.6777 58.2308 37.6777 58.2308C37.6777 58.2308 37.5297 58.4175 37.4364 58.6308L37.3857 58.6042L35.363 80.1108C35.363 80.1108 34.515 86.6975 41.103 80.1108C45.751 75.4575 50.2484 71.5642 52.499 69.6842C59.9537 74.8308 67.9764 80.5242 71.439 83.4975C73.1777 84.9908 74.6324 85.2308 75.8297 85.1908C79.1164 85.0708 80.0337 81.4575 80.0337 81.4575C80.0337 81.4575 95.3617 19.7642 95.8737 11.4975C95.9244 10.6842 95.9937 10.1775 95.999 9.6175C96.0084 8.84417 95.9364 8.07084 95.811 7.71084Z" fill="black"/>
<path d="M95.811 1.71084C95.467 0.697511 95.0564 0.430845 94.415 0.177511C93.0124 -0.342489 90.6364 0.444178 90.6364 0.444178C90.6364 0.444178 6.52302 30.6842 1.71769 34.0308C0.683021 34.7508 0.336368 35.1775 0.164368 35.6708C-0.666299 38.0442 1.92169 39.0975 1.92169 39.0975L23.6017 46.1642C23.6017 46.1642 24.4097 46.2842 24.6977 46.0975C29.6297 42.9775 74.319 14.7642 76.8964 13.8175C77.303 13.6975 77.6044 13.8308 77.5244 14.1108C76.4924 17.7375 37.6777 52.2308 37.6777 52.2308C37.6777 52.2308 37.5297 52.4175 37.4364 52.6308L37.3857 52.6042L35.363 74.1108C35.363 74.1108 34.515 80.6975 41.103 74.1108C45.751 69.4575 50.2484 65.5642 52.499 63.6842C59.9537 68.8308 67.9764 74.5242 71.439 77.4975C73.1777 78.9908 74.6324 79.2308 75.8297 79.1908C79.1164 79.0708 80.0337 75.4575 80.0337 75.4575C80.0337 75.4575 95.3617 13.7642 95.8737 5.49751C95.9244 4.68418 95.9937 4.1775 95.999 3.6175C96.0084 2.84417 95.9364 2.07084 95.811 1.71084Z" fill="#0052FF"/>
</svg>
